<svg id="Layer_x0020_1" xmlns="http://www.w3.org/2000/svg" width="16667" height="4167" viewBox="0 0 16667 4167">
  <rect id="Rectangle_1" data-name="Rectangle 1" width="16667" height="4167" fill="none"/>
  <g id="_1992229018352">
    <path id="Path_1" data-name="Path 1" d="M1696,1924v26c0,68-56,123-124,123H511c-68,0-124-55-124-123v-26ZM1042,103c28,0,51,17,51,39v25h76c32,0,58,13,58,32h22V66H834V199h23c0-19,26-32,58-32h75V142C990,120,1013,103,1042,103Z" fill="#20616e" fill-rule="evenodd"/>
    <path id="Path_2" data-name="Path 2" d="M511,10H1572c68,0,124,56,124,123V1924c0,68-56,123-124,123H511c-68,0-124-55-124-123V133C387,66,443,10,511,10ZM915,142h75V127c0-28,23-51,52-51a51.215,51.215,0,0,1,51,51v15h76c32,0,58,26,58,57,0,32-26,57-58,57H915c-32,0-58-25-58-57C857,168,883,142,915,142Z" fill="#2c8597" fill-rule="evenodd"/>
    <g id="Group_2" data-name="Group 2">
      <g id="Group_1" data-name="Group 1">
        <path id="Path_3" data-name="Path 3" d="M787,1505c-12-7-19-18-19-32V877c0-14,7-25,19-32l356,330Z" fill="#43c3c3" fill-rule="evenodd"/>
        <path id="Path_4" data-name="Path 4" d="M1357,1207l-134,75-84-27-22-80,11-77,95-30,134,75c12,7,19,19,19,32C1376,1189,1369,1200,1357,1207Z" fill="#fca078" fill-rule="evenodd"/>
        <path id="Path_5" data-name="Path 5" d="M787,845a42.361,42.361,0,0,1,38,0l398,223h0l-106,107Z" fill="#91e1a8" fill-rule="evenodd"/>
        <path id="Path_6" data-name="Path 6" d="M787,1505a37.006,37.006,0,0,0,38,0l398-223h0l-106-107Z" fill="#c4397a" fill-rule="evenodd"/>
      </g>
      <path id="Path_7" data-name="Path 7" d="M961,711a44.946,44.946,0,0,1-12-16l17-7c1,2,2,5,5,8a21.36,21.36,0,0,0,17,8c7,0,14-3,18-8a34.533,34.533,0,0,0,5-18v-6c-12,15-39,13-53-3a44.76,44.76,0,0,1,0-61c16-15,39-17,53-3h0v-7h18v78c0,20-8,31-17,38-6,5-16,7-24,7A40.634,40.634,0,0,1,961,711Zm436,4h0l18-41-31-71h17l23,51,21-51h18l-48,112Zm-84-39h0a27.32,27.32,0,0,1-8-19,23.42,23.42,0,0,1,7-17c7-8,18-11,29-11a38.3,38.3,0,0,1,19,5c0-13-10-18-19-18-8,0-14,4-17,11l-16-6c3-8,12-21,33-21a38.637,38.637,0,0,1,27,11c7,7,9,15,9,27v43h-18v-7a35.146,35.146,0,0,1-9,7,40.126,40.126,0,0,1-15,3A34.946,34.946,0,0,1,1313,676ZM757,639h0c0-21,16-44,44-44,27,0,43,23,43,44,0,20-16,43-43,43C773,682,757,659,757,639Zm94,0h0c0-21,16-44,44-44,27,0,43,23,43,44,0,20-16,43-43,43C867,682,851,659,851,639ZM640,662h0c-27-27-26-69,0-95,14-13,31-20,48-20,17,1,34,7,46,19l-13,13c-18-18-48-18-67,1-18,19-19,50,0,69s50,20,68,1c7-6,9-15,10-23H688V609h62c1,4,1,9,1,14,0,15-6,31-17,41-11,12-28,18-45,18A69.657,69.657,0,0,1,640,662Zm440,7h0c-15-17-15-44,0-61,16-17,42-17,57,0,5,5,8,12,11,20l-58,24c4,7,10,13,21,13,9,0,15-3,22-12l15,10h0c-2,2-4,5-6,6C1127,686,1096,686,1080,669Zm109,12h0V567h37c22,0,39,16,39,35s-16,34-36,34h-22v45Zm88,0h0V567h17V681Zm-236-1h0V552h20V680Zm318-32h0c-4-3-10-4-16-4-13,0-20,6-20,13,0,8,8,11,15,11C1348,668,1359,660,1359,648Zm-534-9h0c0-13-9-26-24-26-16,0-25,13-25,26,0,12,9,26,25,26C816,665,825,651,825,639Zm94,0h0c0-13-9-26-24-26-16,0-24,13-24,26,0,12,8,26,24,26C910,665,919,651,919,639Zm92,8h0c0-1,1-2,1-3V634h0c0-2-1-3-1-4-4-10-12-17-22-17-13,0-24,12-24,26s11,26,24,26C999,665,1008,657,1011,647Zm76-10h0l39-16c-4-7-10-9-16-9C1095,612,1085,629,1087,637Zm160-35h0c0-10-8-18-19-18h-21v36h22A17.925,17.925,0,0,0,1247,602Z" fill="#fff" fill-rule="evenodd"/>
    </g>
  </g>
  <g id="_1992229022512">
    <path id="Path_8" data-name="Path 8" d="M3779,1924v26a122.912,122.912,0,0,1-123,123H2594a122.912,122.912,0,0,1-123-123v-26ZM3125,103c29,0,52,17,52,39v25h75c32,0,58,13,58,32h23V66H2917V199h23c0-19,26-32,58-32h75V142C3073,120,3096,103,3125,103Z" fill="#1d7f45" fill-rule="evenodd"/>
    <path id="Path_9" data-name="Path 9" d="M2594,10H3656c68,0,123,56,123,123V1924a122.912,122.912,0,0,1-123,123H2594a122.912,122.912,0,0,1-123-123V133C2471,66,2526,10,2594,10Zm404,132h75V127c0-28,23-51,52-51s52,23,52,51v15h75c32,0,58,26,58,57,0,32-26,57-58,57H2998c-32,0-58-25-58-57C2940,168,2966,142,2998,142Z" fill="#27ae60" fill-rule="evenodd"/>
    <g id="Group_3" data-name="Group 3">
      <path id="Path_10" data-name="Path 10" d="M3065,1133c-45,44-218,209-185,273,6,14,45,44,62,53,54,30,104,51,183,51,75,0,133-22,184-52,18-11,56-39,63-55,11-27-14-67-25-84l-48-68c-31-37-148-155-174-174Zm-223,238c7-112,68-216,132-296,8-10,63-68,66-76-22-18-111-102-153-97-26,14-66,71-84,105-42,83-47,184-14,273C2800,1309,2824,1355,2842,1371Zm565-1c8-4,10-9,15-17,70-102,79-224,29-336-16-36-44-76-71-102-11-11-18-19-41-10-32,14-116,78-130,97C3278,1068,3403,1224,3407,1370ZM2941,857c12,5,56-13,146,44,12,8,27,20,38,25,65-39,99-73,187-67-33-34-130-56-184-56-39-1-73,5-106,15C3002,824,2952,844,2941,857Z" fill="#fff" fill-rule="evenodd"/>
      <path id="Path_11" data-name="Path 11" d="M2966,711h-22l-45-72-47,72h-20l55-84-52-77h22l42,65,44-65h21l-53,77Zm39-76v61h34c14,0,24-3,31-8s10-13,10-23c0-12-3-19-11-24-7-4-19-6-35-6Zm0-16h35c11,0,20-2,26-5,5-4,8-11,8-21s-3-17-10-21-18-6-32-6h-27Zm-19-69h47c21,0,36,3,46,10q15,9,15,30v6c0,2-1,4-2,8-1,3-3,5-5,8-1,3-4,5-8,8a66.582,66.582,0,0,1-12,6c11,2,19,7,25,14a41.468,41.468,0,0,1,8,25c0,15-5,26-14,34-10,8-24,12-43,12h-57Zm155,81c0,20,5,37,14,48,10,12,24,18,43,18q27,0,42-18c9-11,14-28,14-48,0-21-5-38-14-50-10-11-24-17-42-17-19,0-33,6-43,17C3146,593,3141,610,3141,631Zm134,0a88.084,88.084,0,0,1-6,33,72.222,72.222,0,0,1-14,26c-7,8-15,13-25,17-9,4-20,6-32,6-17,0-31-3-42-10-12-7-21-16-27-29-6-12-8-27-8-43,0-26,6-46,20-61,13-15,32-23,57-23,24,0,43,8,56,23C3268,585,3275,605,3275,631Zm143,80h-22l-45-72-46,72h-21l56-84-52-77h22l42,65,44-65h20l-52,77Z" fill="#fff"/>
    </g>
  </g>
  <g id="_1992229024720">
    <path id="Path_12" data-name="Path 12" d="M7946,1924v26c0,68-56,123-124,123H6761c-68,0-124-55-124-123v-26ZM7292,103c28,0,51,17,51,39v25h76c32,0,58,13,58,32h22V66H7084V199h23c0-19,26-32,58-32h75V142C7240,120,7263,103,7292,103Z" fill="#223273" fill-rule="evenodd"/>
    <path id="Path_13" data-name="Path 13" d="M6761,10H7822c68,0,124,56,124,123V1924c0,68-56,123-124,123H6761c-68,0-124-55-124-123V133C6637,66,6693,10,6761,10Zm404,132h75V127c0-28,23-51,52-51a51.215,51.215,0,0,1,51,51v15h76c32,0,58,26,58,57,0,32-26,57-58,57H7165c-32,0-58-25-58-57C7107,168,7133,142,7165,142Z" fill="#2f459e" fill-rule="evenodd"/>
    <g id="Group_4" data-name="Group 4">
      <path id="Path_14" data-name="Path 14" d="M7521,569c7,0,19-1,25,0V548c-5-1-20-1-25,0C7520,553,7521,565,7521,569Zm0,117h25V581h-25Zm-584,0h24V548c-4-1-20-1-24,0C6936,552,6935,680,6937,686Zm395,0V671c-20,0-20,1-20-27V596h27V581c-4-1-21,0-27,0V563h-25c-1,7,0,70,0,83C7287,686,7303,686,7332,686Zm168-15c-19-2-20,6-20-27V596h26V581h-26V563h-25c-1,7-1,79,0,92,0,14,6,24,16,29,7,3,14,2,21,2,6,0,8,2,8-3Zm-308,0v15h39c14,0,22-2,29-10,13-13,13-44,1-60-16-21-46,0-50-26a32.1,32.1,0,0,1,2-17c2-5,4-8,10-9s31-1,39-1V548c-7-1-31,0-39,0-36,1-41,37-33,57,15,35,53,4,55,41C7246,678,7225,671,7192,671Zm409-90c-33,3-40,26-39,59,1,32,17,49,52,46,32-3,40-27,38-59,0-12-4-28-13-36C7631,584,7616,580,7601,581Zm26,66c-1,9-3,17-9,21-5,4-17,4-22,0-13-9-12-61-1-69,6-4,18-4,24,0C7628,606,7628,633,7627,647Zm41,39h25V596c8,0,23-2,29,3,14,12,4,68,8,87h25c-3-40,13-102-38-105a400.448,400.448,0,0,0-49,0Zm-320-56c0,20-3,42,14,52,10,6,24,3,37,4V671c-13-2-26,5-26-13,0-15-1-40,3-52,5-13,17-10,34-10v90h25V581c-7-1-34,0-43,0C7361,581,7348,599,7348,630Zm-318,56V671c-16,0-24,2-26-9-1-9-2-52,6-62,3-3,8-4,14-4,5,0,13-1,17,1v89h25l-1-105c-8-2-50-1-58,2-16,4-25,16-27,34-2,13-3,44,3,55C6992,689,7007,686,7030,686Zm64,51h22l62-156h-23c-3,8-25,65-27,67l-23-67h-26l33,98c2,6,3,5,0,10Zm-265-51h25V563c6,0,28,0,31,1,14,4,14,39,7,49-9,11-16,3-27,7-2,4-1,10-1,15,13-3,35,5,48-12,9-12,12-30,8-47-4-16-14-28-31-28-9,0-54-1-60,0C6828,552,6828,680,6829,686Z" fill="#fff" fill-rule="evenodd"/>
      <path id="Path_15" data-name="Path 15" d="M6851,1345v19c10,14,7,15,21,26,9,6,20,11,32,16,90,31,155,31,249,19v-74c-28,6-54,21-83,28-24,7-75,12-88-8,3-16,22-19,38-25,15-6,29-10,44-16l89-31v-83l-239,85C6880,1315,6871,1320,6851,1345Zm500-65v84c33-1,139-61,212-61,36,1,62,18,16,34l-228,80v83c22-5,279-99,309-109,62-22,107-65,39-100-59-31-131-39-201-39C7461,1252,7381,1266,7351,1280ZM7190,836h-10v629l144,45c3-57,0-218,0-287V1010c0-27-3-47,13-62,54-10,44,70,44,109v155c59,24,124,27,150-47,19-55,11-146-18-189-50-71-149-92-229-115l-86-22c-4-1,0,1-4-1Z" fill="#fff" fill-rule="evenodd"/>
    </g>
  </g>
  <g id="_1992229024112">
    <path id="Path_16" data-name="Path 16" d="M5863,1924v26c0,68-56,123-124,123H4678c-68,0-124-55-124-123v-26ZM5208,103c29,0,52,17,52,39v25h75c32,0,58,13,58,32h23V66H5001V199h22c0-19,26-32,58-32h76V142C5157,120,5180,103,5208,103Z" fill="#8e2a21" fill-rule="evenodd"/>
    <path id="Path_17" data-name="Path 17" d="M4678,10H5739c68,0,124,56,124,123V1924c0,68-56,123-124,123H4678c-68,0-124-55-124-123V133C4554,66,4610,10,4678,10Zm403,132h76V127a51.215,51.215,0,0,1,51-51c29,0,52,23,52,51v15h75c32,0,58,26,58,57,0,32-26,57-58,57H5081c-32,0-58-25-58-57C5023,168,5049,142,5081,142Z" fill="#c23a2e" fill-rule="evenodd"/>
    <g id="Group_5" data-name="Group 5">
      <path id="Path_18" data-name="Path 18" d="M5064,1199c-6-35,122-17,114,77-5,60-70,104-132,68-41-24-25-45-8-38,4,2,12,10,15,13,24,19,61,15,81-5,35-33,20-90-25-103C5095,1207,5067,1215,5064,1199Zm143-432c207,0,375,167,375,372s-168,371-375,371c-175,0-322-119-364-280l43,18c27,12,54,23,82,34,20,9,8,2,23,34,5,13,17,29,24,35,22,17,46,32,87,28,48-4,84-39,95-77,3-9,4-15,5-24,2-13,4-10,13-17,31-23,70-54,99-74,28-19,12-13,41-17,62-10,108-52,122-110,8-33,3-68-11-96-22-45-75-90-148-81-63,8-109,52-124,107-7,25,4,22-18,53l-68,93c-22,30-15,21-33,24-12,2-42,14-44,14,0,0-97-40-196-82C4858,909,5016,767,5207,767Zm119,160c104-9,155,131,57,187-63,36-141-10-148-78C5229,979,5275,931,5326,927Zm82,112c8-44-25-78-59-85-45-9-80,23-86,58C5245,1109,5389,1133,5408,1039Z" fill="#fff" fill-rule="evenodd"/>
      <path id="Path_19" data-name="Path 19" d="M5409,661h25c0-24-1-49,0-72l9,23c2,7,6,15,8,22h19c2-9,11-26,15-39v-2a.979.979,0,0,0,1-1c1-3,0-1,1-2,1,14-1,63,1,71,27,0,26,3,26-6v-8c0-29,1-73,0-99l-30-1c-3,4-9,22-11,28-3,6-9,22-12,27l-22-54-30-1C5408,559,5408,655,5409,661Zm-507-5c11,4,17,7,30,9,54,4,58-42,47-57-6-7-14-11-25-14-13-4-24-4-24-14,0-11,14-12,25-10,13,2,17,10,25,12V556c-17-8-45-13-61-1-21,14-20,39-8,52,6,6,17,10,28,12,34,8,16,32-12,23-10-4-17-10-25-14Zm403-39c1-5,9-33,10-35l10,35Zm-6,21h32l6,23h27l-35-114-28,1-34,113h26Zm-149,23h70V639h-43V611h40V589h-40V570h43V548l-69-1Zm-137-91h30c2,20-2,76,1,91h26V570h30V548l-87-1Z" fill="#fefefe" fill-rule="evenodd"/>
    </g>
  </g>
  <g id="_1992229026448">
    <path id="Path_20" data-name="Path 20" d="M16279,1924v26a122.912,122.912,0,0,1-123,123H15094c-68,0-124-55-124-123v-26ZM15625,103c29,0,52,17,52,39v25h75c32,0,58,13,58,32h22V66h-415V199h23c0-19,26-32,58-32h75V142C15573,120,15596,103,15625,103Z" fill="#037d1f" fill-rule="evenodd"/>
    <path id="Path_21" data-name="Path 21" d="M15094,10h1062c68,0,123,56,123,123V1924a122.912,122.912,0,0,1-123,123H15094c-68,0-124-55-124-123V133C14970,66,15026,10,15094,10Zm404,132h75V127c0-28,23-51,52-51s52,23,52,51v15h75c32,0,58,26,58,57,0,32-26,57-58,57h-254c-32,0-58-25-58-57C15440,168,15466,142,15498,142Z" fill="#00d632" fill-rule="evenodd"/>
    <g id="Group_7" data-name="Group 7">
      <g id="Group_6" data-name="Group 6">
        <text id="Cash_app" data-name="Cash app" transform="translate(15223 695)" fill="#1a1a1a" font-size="198" font-family="SegoeUI-Bold, Segoe UI" font-weight="700"><tspan x="0" y="0">Cash app</tspan></text>
        <g id="Cash_App-Logo.wine" transform="translate(15261.974 790.869)">
          <path id="Path_63" data-name="Path 63" d="M472.16,0c72.466,0,108.7,0,148.329,12.455A153.99,153.99,0,0,1,712.2,104.17c12.455,39.63,12.455,75.863,12.455,148.442V471.934c0,72.692,0,109.152-12.455,148.328a153.99,153.99,0,0,1-91.714,91.714c-39.63,12.682-75.863,12.682-148.329,12.682H252.5c-72.692,0-109.152,0-148.328-12.455a153.99,153.99,0,0,1-91.715-91.714C0,580.859,0,544.626,0,472.047V252.5C0,179.806,0,143.346,12.455,104.17A153.99,153.99,0,0,1,104.17,12.455C143.8,0,180.032,0,252.5,0Z" fill="#fff"/>
          <path id="Path_64" data-name="Path 64" d="M305.77,166.151c5.661,5.661,15.059,5.661,20.381,0l28.307-29.439c6-5.661,5.661-15.852-.679-21.966a223.4,223.4,0,0,0-76.089-43.479l8.945-43.027a15.047,15.047,0,0,0-14.493-18.23h-54.8a14.946,14.946,0,0,0-14.493,12L194.92,60.283C122,64.02,60.179,101.045,60.179,176.908c0,65.672,51.066,93.866,105.075,113.228,51.066,19.475,78.127,26.722,78.127,54.123,0,28.194-26.948,44.725-66.8,44.725-36.233,0-74.277-12.115-103.717-41.668a14.72,14.72,0,0,0-20.834,0L21.455,377.887a15.4,15.4,0,0,0,0,21.74c23.778,23.438,53.9,40.422,88.227,49.82L101.3,489.87a15.019,15.019,0,0,0,14.38,18.23l54.916.453a14.946,14.946,0,0,0,14.72-12l7.926-38.384c87.729-5.888,141.172-54.236,141.172-124.777,0-64.993-53.217-92.394-117.757-114.7-36.912-13.7-68.843-23.1-68.843-51.292,0-27.4,29.779-38.271,59.671-38.271,38.045,0,74.617,15.739,98.508,37.252Z" transform="translate(175.109 103.331)" fill="#00d632"/>
        </g>
      </g>
    </g>
  </g>
  <g id="_1992229029584">
    <path id="Path_25" data-name="Path 25" d="M12113,1924v26c0,68-56,123-124,123H10928c-68,0-124-55-124-123v-26ZM11458,103c29,0,52,17,52,39v25h75c32,0,58,13,58,32h23V66h-415V199h22c0-19,26-32,58-32h76V142C11407,120,11430,103,11458,103Z" fill="#a9405d" fill-rule="evenodd"/>
    <path id="Path_26" data-name="Path 26" d="M10928,10h1061c68,0,124,56,124,123V1924c0,68-56,123-124,123H10928c-68,0-124-55-124-123V133C10804,66,10860,10,10928,10Zm403,132h76V127a51.215,51.215,0,0,1,51-51c29,0,52,23,52,51v15h75c32,0,58,26,58,57,0,32-26,57-58,57h-254c-32,0-58-25-58-57C11273,168,11299,142,11331,142Z" fill="#e8587f" fill-rule="evenodd"/>
    <g id="Group_8" data-name="Group 8">
      <path id="Path_27" data-name="Path 27" d="M11321,593v48c0,18-1,29,7,43,2,4,8,9,12,12,12,6,28,5,39-2,3-1,6-3,7-5,2-1,4-5,6-6l2,14h28c0-7-1-17-1-25V593h-33v49c0,8,1,16-2,22-2,5-7,9-15,9-18,1-17-20-17-32V593Zm126,0c-1,3,0,21,0,25v27c0,10,0,45,1,53l32-1c1-15,0-32,0-48,0-8-1-16,3-22a15.77,15.77,0,0,1,15-10c17,0,17,16,17,32,0,11-1,39,0,48h33V649c0-16,0-30-7-42-11-17-34-21-51-11-8,4-9,8-13,11-1-2-1-11-2-14Zm152,40c0-11,9-20,19-21,13,0,20,9,20,21Zm68,23c3-12,0-31-5-41-12-24-41-30-65-19-22,10-33,38-28,63,5,27,26,40,53,41,12,0,31-2,40-7l-4-22c-3,1-6,2-9,2-17,4-48,5-50-17Zm-462-75h39V697c7,1,30,0,33,1V581h40V553h-112Zm546,38c1-2,5-19,6-22-5-4-19-6-27-6a48.548,48.548,0,0,0-27,5c-16,8-24,27-15,42,9,17,35,19,40,25,3,4,2,9-1,11-4,3-9,3-14,3-10-1-17-4-25-8-1,1-2,4-2,6-1,4-4,15-4,17,11,8,40,10,55,5,18-6,28-21,24-39-3-10-8-14-15-19-11-7-31-8-30-18,0-5,4-7,8-8C11736,612,11745,617,11751,619Zm-595,78h33V593h-33Zm13-149c-22,4-17,37,7,32C11198,576,11192,543,11169,548Z" fill="#fff" fill-rule="evenodd"/>
      <path id="Path_28" data-name="Path 28" d="M11450,932c50-1,96-29,123-67,23-34,36-73,31-115-16-4-53,13-65,19-55,31-99,91-92,156C11447,931,11446,930,11450,932Zm339,374c-29-8-60-35-73-53-42-54-50-133-13-188,27-42,31-37,63-61-6-13-41-42-58-51-60-34-110-33-174-8-91,34-99,1-174-14-35-7-64-4-94,7-49,18-92,61-113,103-54,111-11,256,41,343,26,44,60,92,102,114,29,16,58,15,88,3,29-12,48-23,85-23,25,0,43,2,65,11,16,6,31,15,50,19,57,11,100-34,130-72,10-13,18-26,28-40C11752,1381,11786,1322,11789,1306Z" fill="#fff" fill-rule="evenodd"/>
    </g>
  </g>
  <g id="_1992229032048">
    <path id="Path_29" data-name="Path 29" d="M14196,1924v26c0,68-56,123-124,123H13011c-68,0-124-55-124-123v-26ZM13542,103c28,0,51,17,51,39v25h76c32,0,58,13,58,32h22V66h-415V199h23c0-19,26-32,58-32h75V142C13490,120,13513,103,13542,103Z" fill="#154e76" fill-rule="evenodd"/>
    <path id="Path_30" data-name="Path 30" d="M13011,10h1061c68,0,124,56,124,123V1924c0,68-56,123-124,123H13011c-68,0-124-55-124-123V133C12887,66,12943,10,13011,10Zm404,132h75V127c0-28,23-51,52-51a51.215,51.215,0,0,1,51,51v15h76c32,0,58,26,58,57,0,32-26,57-58,57h-254c-32,0-58-25-58-57C13357,168,13383,142,13415,142Z" fill="#1d6ca1" fill-rule="evenodd"/>
    <g id="Group_11" data-name="Group 11">
      <g id="Group_9" data-name="Group 9">
        <path id="Path_31" data-name="Path 31" d="M13394,1431l-9,60c-2,10,6,19,16,19h117c13,0,25-10,27-23l1-6,22-138,2-7c2-14,13-24,27-24h18c112,0,200-45,226-176,11-55,5-100-23-132-9-10-20-18-32-25l-77,27-244,128-110,34Z" fill="#accfe3" fill-rule="evenodd"/>
        <path id="Path_32" data-name="Path 32" d="M13428,1220l1-6-1,6c2-15,16-26,31-26h66c128,0,229-52,259-202,1-4,1-8,2-13l-50-72-289-4-69,293Z" fill="#e6eff6" fill-rule="evenodd"/>
        <path id="Path_33" data-name="Path 33" d="M13466,980c2-9,8-17,16-20q4.5-3,12-3h175c20,0,40,1,57,4,6,1,10,2,15,3s10,2,14,3a18.539,18.539,0,0,0,7,2c8,3,16,7,24,10,9-55,0-93-30-127-34-37-94-53-171-53h-223a32.28,32.28,0,0,0-32,26l-92,584a18.554,18.554,0,0,0,18,22h138l35-217Z" fill="#fff" fill-rule="evenodd"/>
      </g>
      <g id="Group_10" data-name="Group 10">
        <path id="Path_34" data-name="Path 34" d="M13678,601c-3,20-19,20-34,20h-9l6-38c1-2,3-4,5-4h4c10,0,20,0,25,6C13678,589,13679,594,13678,601Zm-7-54h-57c-4,0-8,3-8,7l-24,147a4.724,4.724,0,0,0,5,5h30c3,0,5-2,5-4l7-42c1-4,4-7,8-7h18q57,0,66-54c2-16,0-28-8-37Q13701,547,13671,547Zm134,107c-2,15-15,26-31,26-8,0-14-3-18-8-4-4-6-11-5-19,3-15,16-26,31-26,8,0,15,2,19,7A22.559,22.559,0,0,1,13805,654Zm39-54h-28a4.3,4.3,0,0,0-4,4l-2,8-2-3c-6-8-19-11-32-11-31,0-57,23-62,55-3,16,1,31,10,42,9,10,21,14,35,14,25,0,38-16,38-16l-1,8a4.724,4.724,0,0,0,5,5h25c4,0,7-3,8-7l15-93C13849,603,13847,600,13844,600Zm33-49-24,150c-1,3,2,5,5,5h23c4,0,8-3,8-7l24-146v-1h0c0-2-2-5-5-5h-27A4.3,4.3,0,0,0,13877,551Z" fill="#accfe3" fill-rule="evenodd"/>
        <path id="Path_35" data-name="Path 35" d="M13266,601c-3,20-19,20-34,20h-9l6-38c1-2,3-4,5-4h4c11,0,20,0,25,6C13267,589,13267,594,13266,601Zm-6-54h-58c-4,0-7,3-8,7l-23,147c-1,3,1,5,4,5h28c4,0,7-3,8-7l6-39c1-4,4-7,8-7h18q57,0,66-54c3-16,0-28-7-37C13294,552,13279,547,13260,547Zm134,107a32.28,32.28,0,0,1-32,26c-8,0-14-3-18-8-4-4-6-11-4-19,2-15,15-26,31-26,7,0,14,2,18,7S13395,646,13394,654Zm38-54h-27c-3,0-5,2-5,4l-1,8-2-3c-6-8-20-11-33-11-31,0-57,23-62,55-2,16,1,31,11,42,8,10,20,14,34,14,25,0,39-16,39-16l-2,8a4.724,4.724,0,0,0,5,5h25c4,0,7-3,8-7l15-93C13437,603,13435,600,13432,600Zm147,0h-27a8.418,8.418,0,0,0-7,4l-38,56-17-54c-1-3-4-6-7-6h-28c-3,0-5,4-4,7l30,89-28,40c-3,3,0,7,4,7h27a9.078,9.078,0,0,0,7-3l92-132C13586,605,13583,600,13579,600Z" fill="#fff" fill-rule="evenodd"/>
      </g>
    </g>
  </g>
  <g id="_1992229033680">
    <path id="Path_36" data-name="Path 36" d="M10029,1924v26a122.912,122.912,0,0,1-123,123H8844a122.912,122.912,0,0,1-123-123v-26ZM9375,103c29,0,52,17,52,39v25h75c32,0,58,13,58,32h23V66H9167V199h23c0-19,26-32,58-32h75V142C9323,120,9346,103,9375,103Z" fill="#468c46" fill-rule="evenodd"/>
    <path id="Path_37" data-name="Path 37" d="M8844,10H9906c68,0,123,56,123,123V1924a122.912,122.912,0,0,1-123,123H8844a122.912,122.912,0,0,1-123-123V133C8721,66,8776,10,8844,10Zm404,132h75V127c0-28,23-51,52-51s52,23,52,51v15h75c32,0,58,26,58,57,0,32-26,57-58,57H9248c-32,0-58-25-58-57C9190,168,9216,142,9248,142Z" fill="#61bf61" fill-rule="evenodd"/>
    <g id="Group_12" data-name="Group 12">
      <path id="Path_38" data-name="Path 38" d="M9018,696l20-24c14,11,29,19,47,19,14,0,23-6,23-15h0c0-9-6-14-32-20-31-9-52-17-52-49h0c0-29,23-47,55-47,23,0,42,7,58,20l-18,26c-14-10-27-16-40-16-14,0-20,6-20,14h0c0,11,6,14,33,21,32,8,50,20,50,47v1c0,31-24,48-58,48A99.086,99.086,0,0,1,9018,696Zm196-1c-17,0-32-16-32-36,0-19,15-35,32-35,18,0,32,16,32,35C9246,679,9232,695,9214,695Zm9-98c-20,0-32,7-40,19V600h-31V754h31V704c8,9,19,17,37,17,28,0,57-21,57-61h0C9277,620,9250,597,9223,597Zm126,98c-18,0-33-15-33-35s15-36,33-36c19,0,34,16,34,36S9368,695,9349,695Zm1-98c-37,0-65,28-65,63h0c0,34,28,62,64,62,37,0,64-28,64-62v-1C9413,625,9386,597,9350,597Zm189-31c0,11-9,20-19,20a20.059,20.059,0,0,1-20-20c0-10,9-19,20-19C9530,547,9539,556,9539,566Zm54,34v-6c0-9,7-13,15-13a36.532,36.532,0,0,1,15,3V557c-6-2-13-3-24-3-12,0-20,3-27,9-6,6-10,16-10,29v8h-15v27h14v92h32V627h25l38,90c-4,8-9,11-15,11a29.757,29.757,0,0,1-15-5l-12,24c9,5,21,8,33,8,22,0,32-18,35-28l50-127h-32l-29,81-32-81h-46Zm-89,0h31V719h-31Zm-74,85V627h-15V599h15V568h31v31h31v28h-31v54c0,10,6,12,14,12a33.711,33.711,0,0,0,17-5v26c-7,5-16,7-27,7C9444,721,9430,713,9430,685Z" fill="#fff" fill-rule="evenodd"/>
      <path id="Path_39" data-name="Path 39" d="M9375,803c197,0,357,158,357,353,0,196-160,354-357,354s-357-158-357-354C9018,961,9178,803,9375,803Zm261,285c0,25-27,41-50,28-16-8-31-16-48-23-33-13-66-21-101-27-24-5-49-7-73-9-25-1-51-2-76,0-29,1-58,4-87,11-10,2-21,5-31,7-7,2-13,2-19,0-14-4-24-16-24-30-1-14,8-28,22-32,10-3,20-6,31-8a493.749,493.749,0,0,1,77-12c28-3,56-3,84-3,69,2,136,12,201,35,26,9,52,20,76,34,9,5,15,12,17,22C9636,1083,9636,1085,9636,1088Zm-324,79c-41,0-83,5-124,17a34.083,34.083,0,0,1-20,0,28.083,28.083,0,0,1-17-26c0-12,8-22,19-26,11-3,23-6,35-9,29-6,58-9,88-11,64-2,126,6,187,26a363.673,363.673,0,0,1,88,39,5.2,5.2,0,0,1,4,2c15,9,17,26,10,38a27.6,27.6,0,0,1-38,9c-8-4-16-9-24-13-36-18-74-30-114-37A475.919,475.919,0,0,0,9312,1167Zm6,60c47,1,93,7,138,22,25,8,48,19,71,32a21.859,21.859,0,0,1,5,3c9,7,12,20,6,29-6,10-18,13-28,9l-6-3c-38-23-79-36-122-43a439.935,439.935,0,0,0-81-4c-34,1-69,6-103,13a35.53,35.53,0,0,1-10,2,22.557,22.557,0,0,1-22-18c-2-10,4-20,14-24,2-1,4-1,6-2,28-6,56-11,84-13C9286,1228,9302,1228,9318,1227Z" fill="#fff" fill-rule="evenodd"/>
    </g>
  </g>
  <g id="_1992229036272">
    <g id="Group_13" data-name="Group 13">
      <path id="Path_40" data-name="Path 40" d="M559,4037c-23-12-36-35-36-60V2834c0-26,13-48,36-61l675,632Z" fill="#43c3c3" fill-rule="evenodd"/>
      <path id="Path_41" data-name="Path 41" d="M1639,3466l-254,144-158-51-43-154,21-148,181-56,253,144c23,13,36,35,36,60C1675,3431,1662,3453,1639,3466Z" fill="#fca078" fill-rule="evenodd"/>
      <path id="Path_42" data-name="Path 42" d="M559,2773a76.5,76.5,0,0,1,72,0l755,428h0l-202,204Z" fill="#91e1a8" fill-rule="evenodd"/>
      <path id="Path_43" data-name="Path 43" d="M559,4037c23,13,49,13,72,0l755-427h0l-202-205Z" fill="#c4397a" fill-rule="evenodd"/>
    </g>
    <path id="Path_44" data-name="Path 44" d="M888,2516c-9-8-17-21-22-30l32-13c2,4,5,10,10,15,8,9,19,15,32,15,12,0,26-6,34-16,6-9,9-21,9-33v-13c-23,30-73,25-101-5-29-32-29-85,1-117,30-30,74-33,100-5h0v-14h34v150c0,38-14,60-31,72-13,9-31,14-46,14C919,2536,902,2529,888,2516Zm828,9h0l33-79-59-137h34l42,97,41-97h34l-91,216Zm-160-76h0c-9-9-14-23-14-36a41.38,41.38,0,0,1,12-33c13-14,34-20,55-20,14,0,26,2,36,8,0-24-19-34-35-34-15,0-28,8-33,22l-30-12c5-15,22-40,62-40,20,0,39,7,52,20,12,14,16,30,16,53v83h-33v-15c-4,5-11,11-18,14a62.64,62.64,0,0,1-27,6C1584,2465,1567,2460,1556,2449ZM502,2378h0c0-40,30-83,82-83,53,0,83,43,83,83,0,39-30,83-83,83C532,2461,502,2417,502,2378Zm179,0h0c0-40,30-83,82-83s82,43,82,83c0,39-30,83-82,83S681,2417,681,2378Zm-402,44h0c-50-51-48-131,2-181,25-26,58-38,91-38,31,0,62,12,87,35l-25,26a89.042,89.042,0,0,0-127,1c-35,37-36,96-1,133,36,36,95,38,130,2,12-13,16-29,19-45H371v-35H489a245.189,245.189,0,0,1,2,27c0,29-13,60-32,80-23,22-54,34-86,34C339,2461,305,2447,279,2422Zm836,14h0c-29-32-29-85,0-117a72.009,72.009,0,0,1,108-1c9,11,15,25,21,39l-110,46c7,13,19,25,39,25,17,0,29-6,41-23l29,19h0c-3,5-8,9-11,12C1203,2469,1144,2469,1115,2436Zm206,24h0V2241h70c43,0,75,30,75,66,0,37-31,66-68,66h-44v87Zm167,0h0V2241h33v219Zm-447-4h0V2211h36v245Zm604-61h0a68.951,68.951,0,0,0-32-8c-24,0-37,12-37,26s14,21,27,21C1622,2434,1645,2419,1645,2395ZM630,2378h0c0-24-16-50-46-50-29,0-45,26-45,50s16,50,45,50C614,2428,630,2402,630,2378Zm179,0h0c0-24-17-50-46-50s-46,26-46,50,17,50,46,50S809,2402,809,2378Zm175,15h0c0-1,1-3,1-6v-1a22.018,22.018,0,0,0,1-8,27.686,27.686,0,0,0-1-9v-1c-1-2-1-5-2-7-6-20-23-33-42-33-25,0-45,23-44,50,0,28,20,50,44,50C961,2428,977,2414,984,2393Zm144-18h0l74-31c-8-13-20-17-31-17C1143,2327,1124,2358,1128,2375Zm304-67h0c0-19-15-35-37-35h-41v70h42C1416,2343,1432,2327,1432,2308Z" fill="#fff" fill-rule="evenodd"/>
  </g>
  <g id="_1992229037072">
    <path id="Path_45" data-name="Path 45" d="M3011,3325c-86,84-414,400-352,523,14,26,87,83,119,101,103,57,198,98,347,98,143,0,253-41,350-100,34-21,105-74,118-105,22-51-27-129-46-162l-93-130c-58-70-280-296-329-333Zm-422,456c13-214,128-414,249-567,15-19,121-131,126-145-43-35-211-195-291-187-48,28-125,136-158,201-81,159-90,354-26,524C2509,3662,2555,3749,2589,3781Zm1072-2c13-8,17-18,27-32,134-196,150-430,56-645-30-68-85-145-135-195-21-20-34-37-78-18-60,25-221,148-246,186C3415,3199,3653,3498,3661,3779Zm-886-983c23,9,107-24,278,84,23,15,52,39,72,48,122-75,188-139,354-129-62-64-245-106-349-107-73-1-138,10-201,29C2892,2733,2796,2772,2775,2796Z" fill="#fff" fill-rule="evenodd"/>
    <path id="Path_46" data-name="Path 46" d="M2823,2516h-41l-86-137-88,137h-39l105-160-98-148h41l80,124,83-124h39l-99,147Zm75-146v117h64c26,0,46-5,59-15,13-9,19-24,19-45s-7-36-21-44c-14-9-36-13-66-13Zm0-29h66c21,0,37-4,48-11,11-8,17-21,17-40,0-20-7-33-20-40-13-8-33-11-61-11h-50Zm-37-133h89c39,0,69,6,88,18,19,13,28,32,28,58v12c-1,4-2,8-4,14a88.648,88.648,0,0,1-8,17,78.093,78.093,0,0,1-16,15c-6,5-14,8-23,11,20,4,36,13,47,27,11,13,16,30,16,49,0,28-9,49-28,65-18,15-45,22-81,22H2861Zm294,155q0,58.5,27,93c18,22,45,34,81,34,35,0,62-12,80-34q27-34.5,27-93c0-41-9-73-27-95s-45-33-80-33-62,11-80,33C3164,2290,3155,2322,3155,2363Zm254,0c0,23-4,44-10,64-7,19-16,36-28,50s-27,25-46,33c-18,7-39,11-62,11-31,0-58-7-80-20a126.671,126.671,0,0,1-50-55c-11-24-17-52-17-84,0-49,13-88,39-116,26-29,62-43,108-43,45,0,81,14,107,43S3409,2313,3409,2363Zm272,153h-41l-86-137-88,137h-39l105-160-98-148h41l80,124,83-124h39l-99,147Z" fill="#fff"/>
  </g>
  <g id="_1992229038480">
    <path id="Path_47" data-name="Path 47" d="M7727,2244c13,0,35-2,46,1l1-40c-9-2-38-3-46,0C7725,2213,7726,2236,7727,2244Zm0,224h47V2267h-47Zm-1108,1,46-1V2205c-9-2-38-3-46,0C6616,2211,6616,2456,6619,2469Zm749-1v-29c-39,0-37,2-37-52v-91h50v-28c-8-3-40-1-50-1v-34h-47c-2,14-1,134-1,159C7283,2468,7313,2468,7368,2468Zm318-28c-35-5-38,11-38-53v-90l50-1,1-29h-51v-34h-47c-1,14-1,152,0,175,0,27,12,47,31,56,12,6,26,4,40,4,10,0,14,3,15-6C7687,2455,7687,2447,7686,2440Zm-583-1v29h73c27,0,42-4,55-18,25-26,25-85,3-115-31-41-88-1-95-50-1-11-1-24,3-33,4-10,8-15,20-18,11-2,59-2,73,0v-29c-13-3-58-2-73-1-69,3-79,71-63,109,29,67,101,8,104,79C7205,2452,7165,2439,7103,2439Zm775-172c-62,6-76,49-74,113,2,62,33,94,99,88,61-5,75-51,72-114-1-22-7-53-24-68C7935,2272,7907,2265,7878,2267Zm49,128c-2,17-5,30-16,38-11,9-32,9-43,1-23-17-23-117,0-132,11-8,33-8,44,0C7930,2316,7930,2367,7927,2395Zm78,73h48V2296c15,0,44-3,54,5,28,23,8,132,16,168l47-1c-6-76,26-194-72-201-26-2-68-2-92,0Zm-606-108c0,39-6,82,25,101,20,12,46,6,72,8l-1-29c-25-4-49,10-49-26,0-27-2-76,6-99,9-24,32-19,64-19v172h47V2267c-13-1-63,0-80,0C7424,2267,7399,2301,7399,2360Zm-604,108v-29c-30,0-44,5-48-16-3-18-5-101,11-119,5-6,15-8,25-8s25-1,32,1v171h48V2267c-17-3-96-1-112,3-30,8-46,31-51,65-3,26-5,85,6,106C6723,2474,6752,2469,6795,2468Zm122,98h41l119-299h-45c-6,15-47,124-51,129l-44-129h-50l64,189c4,11,5,9,1,19Zm-502-97,46-1V2233c11,0,53-1,60,1,26,9,26,75,12,95-16,21-30,6-51,12-3,9-2,20-1,29,25-4,66,10,90-22,17-24,24-57,15-91-7-30-25-52-58-53-17-1-103-2-113,1C6412,2211,6412,2456,6415,2469Z" fill="#fff" fill-rule="evenodd"/>
    <path id="Path_48" data-name="Path 48" d="M6455,3731v36c20,28,14,29,41,50,16,12,38,22,60,30,172,61,295,60,472,37V3742c-52,12-103,40-156,54-47,13-142,22-167-16,5-29,41-36,71-47s56-20,84-30l168-59V3484l-452,162C6511,3674,6493,3683,6455,3731Zm950-125-2,162c64-2,264-117,403-117,69,1,118,33,31,65l-434,152,1,159c41-9,529-188,586-208,118-42,203-125,74-192-111-59-249-74-381-74C7613,3553,7462,3579,7405,3606Zm-306-850h-20V3960l274,87c6-110,0-418,0-549V3088c0-51-6-89,25-117,103-21,82,134,82,208v298c113,45,235,51,285-91,37-106,22-280-34-362-94-136-282-175-434-220l-164-42c-6-2,0,1-7-2Z" fill="#fff" fill-rule="evenodd"/>
  </g>
  <g id="_1992229048912">
    <path id="Path_49" data-name="Path 49" d="M4935,3451c-11-67,231-32,216,148-9,114-133,198-251,130-77-45-46-87-16-73,9,3,24,19,30,24,44,37,116,30,154-8,65-64,36-173-48-198C4993,3466,4940,3482,4935,3451Zm271-827c392,0,711,319,711,712s-319,711-711,711c-333,0-612-228-690-536l81,34c51,23,103,45,155,66,38,16,16,3,43,65,10,24,33,56,46,66,42,32,88,62,165,54,91-8,160-74,182-147a369.145,369.145,0,0,0,8-46c4-25,8-19,25-32,59-44,133-104,188-142,52-37,23-26,78-34,116-19,204-99,231-210,15-63,6-131-20-185-42-85-144-172-281-155-121,16-208,100-237,206-12,47,9,42-33,101l-129,178c-41,57-28,41-63,46-22,4-80,28-83,27,0,0-184-76-372-156C4543,2896,4843,2624,5206,2624Zm226,306c198-17,294,250,108,358-120,69-268-20-281-150C5248,3029,5335,2939,5432,2930Zm155,214c16-83-47-148-112-162-85-17-151,45-163,112C5278,3279,5552,3326,5587,3144Z" fill="#fff" fill-rule="evenodd"/>
    <path id="Path_50" data-name="Path 50" d="M5590,2421h46c0-46-1-95,1-138l16,43c5,14,12,29,16,43h36c4-17,20-51,27-74,1-2,1-4,2-5,0-1,1-2,1-3,3-5,0-1,2-3,2,27-3,122,2,137,51-1,50,5,50-13v-14c0-57,2-140,0-190l-57-1c-6,7-18,41-22,52-5,13-16,43-22,52l-42-103-57-1C5587,2224,5587,2409,5590,2421Zm-963-9c20,6,32,13,57,15,103,9,111-79,88-108-9-13-25-20-46-27-25-8-46-7-46-27,0-21,27-23,48-19,24,4,32,20,48,23v-51c-33-14-86-23-117-1-39,28-37,76-14,101,10,11,31,18,52,23,66,15,31,61-23,42-19-6-31-17-47-25Zm765-76c2-9,16-63,19-66l18,66Zm-11,40h59l12,45,52-1-66-217h-54l-65,218,49-1Zm-283,45h133v-43h-82v-53l75-1,1-41h-76v-37h82v-43H5099Zm-260-175h57c4,39-5,146,1,175h49V2246h58v-42l-165-1Z" fill="#fefefe" fill-rule="evenodd"/>
  </g>
  <g id="_1992229050416">
    <g id="Group_14" data-name="Group 14">
      <g id="Cash_App-Logo.wine-2" data-name="Cash_App-Logo.wine" transform="translate(15016.903 2738.221)">
        <path id="Path_63-2" data-name="Path 63" d="M791.517,0C913,0,973.737,0,1040.171,20.879a258.145,258.145,0,0,1,153.748,153.748C1214.8,241.062,1214.8,301.8,1214.8,423.471V791.138c0,121.859,0,182.979-20.879,248.654a258.144,258.144,0,0,1-153.748,153.748C973.737,1214.8,913,1214.8,791.517,1214.8H423.281c-121.859,0-182.979,0-248.654-20.879A258.145,258.145,0,0,1,20.879,1040.171C0,973.737,0,913,0,791.327V423.281C0,301.422,0,240.3,20.879,174.627A258.145,258.145,0,0,1,174.627,20.879C241.062,0,301.8,0,423.281,0Z" fill="#fff"/>
        <path id="Path_64-2" data-name="Path 64" d="M501.111,271.761c9.491,9.491,25.245,9.491,34.166,0l47.453-49.351c10.06-9.491,9.491-26.574-1.139-36.824A374.5,374.5,0,0,0,454.038,112.7l15-72.129c3.227-15.754-8.542-30.56-24.3-30.56H352.868a25.055,25.055,0,0,0-24.3,20.12L315.285,94.287C193.046,100.55,89.408,162.619,89.408,289.793c0,110.091,85.605,157.354,176.146,189.812,85.605,32.648,130.971,44.8,130.971,90.73,0,47.263-45.175,74.976-111.989,74.976-60.74,0-124.517-20.31-173.868-69.851a24.676,24.676,0,0,0-34.926,0L24.493,626.71a25.815,25.815,0,0,0,0,36.444c39.861,39.291,90.351,67.763,147.9,83.517l-14.046,67.763c-3.227,15.754,8.352,30.37,24.106,30.56l92.059.759a25.055,25.055,0,0,0,24.676-20.12l13.287-64.346c147.067-9.87,236.658-90.92,236.658-209.173,0-108.952-89.212-154.887-197.4-192.28-61.879-22.967-115.406-38.722-115.406-85.985,0-45.935,49.921-64.157,100.031-64.157,63.777,0,125.086,26.384,165.137,62.448Z" transform="translate(305.022 179.992)" fill="#00d632"/>
      </g>
      <text id="Cash_app-2" data-name="Cash app" transform="translate(14912 2560)" fill="#1a1a1a" font-size="344" font-family="SegoeUI-Bold, Segoe UI" font-weight="700"><tspan x="0" y="0">Cash app</tspan></text>
    </g>
  </g>
  <g id="_1992085164336">
    <path id="Path_54" data-name="Path 54" d="M11198,2290v93c0,34-1,54,13,81,4,9,14,19,23,23,22,12,54,10,75-2,4-3,10-7,13-11,3-2,7-10,10-12l3,28h54c1-15-1-33-1-49V2290h-63v94c0,15,2,32-4,42-4,10-14,18-28,18-34,1-32-39-32-61v-93Zm238,0c-1,7,1,40,1,49,1,17,1,34,1,51,0,19-1,87,0,100h62c1-30,0-62,0-93,0-14-2-30,4-42,5-9,15-18,29-19,33-1,32,32,32,61,0,22-1,76,0,93h63c1-18,0-71,0-93,0-30,1-57-13-79-20-34-65-41-97-22-14,8-17,15-24,21-3-4-2-21-4-27Zm289,77c1-21,17-39,37-40,23-1,36,17,36,41Zm129,43c7-22,0-59-9-77-22-48-78-58-123-38-43,19-63,74-54,121,9,53,50,77,101,79,22,1,59-4,76-13l-8-42c-5,1-11,3-16,4-33,7-92,9-95-34Zm-876-143h74v223c12,1,56-1,63,1V2267h75v-52h-211C10978,2220,10978,2261,10978,2267Zm1035,73c2-3,11-37,12-43-9-6-37-11-51-11-19-1-37,2-51,10-32,16-46,52-29,81,18,32,67,36,76,48,5,7,3,17-3,21-6,5-17,5-26,5-19-2-32-8-48-15-1,2-2,8-3,11-2,7-8,29-8,34,22,15,76,18,104,8,35-11,54-40,45-75-4-18-14-26-27-35-22-14-58-16-57-35,0-9,7-13,16-15C11986,2326,12002,2337,12013,2340Zm-1128,150h62V2290h-62Zm24-286c-41,8-31,70,15,61C10965,2257,10954,2195,10909,2204Z" fill="#fff" fill-rule="evenodd"/>
    <path id="Path_55" data-name="Path 55" d="M11443,2940c95-2,182-56,232-129,44-65,70-139,60-221-31-6-102,25-124,38-105,58-187,173-175,297C11437,2938,11435,2936,11443,2940Zm642,717c-55-15-113-68-139-102-78-103-93-255-24-361,52-80,60-71,120-115-11-25-79-81-110-99-114-65-209-62-330-16-173,65-187,2-330-27-67-13-121-7-179,15-92,34-175,115-214,197-102,212-20,491,78,657,49,83,114,176,193,219,56,30,110,28,168,4,55-21,91-44,161-44,47,0,80,4,122,21,31,13,59,30,95,37,109,21,191-64,247-138,19-25,34-49,53-76C12016,3800,12080,3687,12085,3657Z" fill="#fff" fill-rule="evenodd"/>
  </g>
  <g id="_1992085136912">
    <g id="Group_15" data-name="Group 15">
      <path id="Path_56" data-name="Path 56" d="M13262,3896l-18,114c-3,20,12,37,31,37h221a52.671,52.671,0,0,0,52-45l2-11,42-263,3-15a52.694,52.694,0,0,1,52-44h33c213,0,381-87,429-338,21-105,10-192-44-254a199.539,199.539,0,0,0-60-46l-146,51-464,245-207,65Z" fill="#accfe3" fill-rule="evenodd"/>
      <path id="Path_57" data-name="Path 57" d="M13326,3492l2-13-2,13c4-29,30-51,59-51h125c244,0,435-99,491-386,1-8,3-16,4-24l-95-140-549-6-129,561Z" fill="#e6eff6" fill-rule="evenodd"/>
      <path id="Path_58" data-name="Path 58" d="M13398,3032c3-18,14-32,30-40a59.32,59.32,0,0,1,23-5h332a733.773,733.773,0,0,1,109,8c10,2,19,4,28,6s18,4,26,6a92.878,92.878,0,0,0,13,4c16,6,32,12,46,20,17-106,0-179-58-244-63-72-177-103-323-103h-423c-30,0-55,22-60,52l-176,1118c-4,22,13,42,36,42h261l66-417Z" fill="#fff" fill-rule="evenodd"/>
    </g>
    <g id="Group_16" data-name="Group 16">
      <path id="Path_59" data-name="Path 59" d="M13800,2306c-6,39-36,39-65,39h-16l11-74a9.605,9.605,0,0,1,9-7h8c20,0,38,0,48,11C13801,2282,13803,2292,13800,2306Zm-12-103h-110a15.029,15.029,0,0,0-15,13l-44,281c-1,5,3,10,9,10h56a11.717,11.717,0,0,0,11-9l12-79a15.029,15.029,0,0,1,15-13h35c72,0,114-35,124-104,5-31,1-54-13-71C13852,2213,13824,2203,13788,2203Zm254,203c-5,30-29,50-59,50-15,0-28-5-35-14-8-9-11-22-9-37,5-29,29-50,59-50,15,0,27,5,35,14C14041,2379,14044,2392,14042,2406Zm73-102h-52c-5,0-9,4-9,8l-3,15-3-6c-12-16-37-22-62-22-58,0-108,44-117,106-5,31,2,60,19,80,16,19,39,27,66,27,47,0,73-30,73-30l-3,15c0,5,4,10,9,10h48c7,0,13-5,15-13l28-179C14125,2309,14121,2304,14115,2304Zm62-93-45,286c-1,5,3,10,9,10h45c8,0,14-5,15-13l44-280c0-1,1-1,1-2h0c-1-5-5-9-10-9h-50C14181,2203,14177,2206,14177,2211Z" fill="#accfe3" fill-rule="evenodd"/>
      <path id="Path_60" data-name="Path 60" d="M13019,2306c-6,39-36,39-65,39h-16l11-74a9.605,9.605,0,0,1,9-7h8c20,0,38,0,48,11C13020,2282,13022,2292,13019,2306Zm-12-103h-110a15.029,15.029,0,0,0-15,13l-44,281c-1,5,3,10,9,10h52c8,0,14-5,15-13l12-75a15.029,15.029,0,0,1,15-13h35c72,0,114-35,124-104,5-31,1-54-13-71C13071,2213,13043,2203,13007,2203Zm254,203c-5,30-29,50-59,50-15,0-28-5-35-14-8-9-11-22-9-37,5-29,29-50,59-50,15,0,27,5,35,14C13260,2379,13263,2392,13261,2406Zm73-102h-52c-5,0-9,4-9,8l-3,15-3-6c-12-16-37-22-62-22-58,0-108,44-117,106-5,31,2,60,19,80,16,19,39,27,66,27,47,0,73-30,73-30l-3,15c0,5,4,10,9,10h48a15.029,15.029,0,0,0,15-13l28-179C13344,2309,13340,2304,13334,2304Zm279,0h-52c-5,0-10,3-13,7l-73,107-31-103c-1-6-7-11-14-11h-52c-6,0-11,6-9,12l58,171-54,77c-4,6,0,14,7,14h53c5,0,10-2,12-6l176-253C13625,2313,13621,2304,13613,2304Z" fill="#fff" fill-rule="evenodd"/>
    </g>
  </g>
  <g id="_1992054145936">
    <path id="Path_61" data-name="Path 61" d="M8698,2488l39-47c26,23,54,37,88,37,27,0,43-11,43-29v-1c0-16-10-25-60-38-60-15-98-32-98-92v-1c0-55,43-91,104-91,43,0,80,14,110,39l-34,50c-26-19-52-30-77-30s-38,11-38,26v1c0,20,12,26,64,40,60,15,94,37,94,90v1c0,60-45,93-109,93A189.2,189.2,0,0,1,8698,2488Zm372-3c-33,0-60-30-60-67,0-38,27-68,60-68s60,30,60,68C9130,2455,9103,2485,9070,2485Zm16-186c-37,0-60,13-76,35v-31h-58v296h60v-97c15,19,36,34,70,34,53,0,107-41,107-117v-1C9189,2342,9137,2299,9086,2299Zm240,188c-35,0-63-31-63-69,0-37,28-68,63-68s64,31,64,68C9390,2456,9361,2487,9326,2487Zm1-188c-69,0-122,53-122,119v1c0,66,52,118,121,118,70,0,121-53,121-119v-1C9447,2351,9396,2299,9327,2299Zm359-60c0,21-16,37-37,37-20,0-36-16-36-37a35.85,35.85,0,0,1,36-36C9670,2203,9686,2219,9686,2239Zm102,65v-12c0-17,13-24,29-24a88.074,88.074,0,0,1,29,5v-52a177.02,177.02,0,0,0-46-6c-23,0-39,6-51,18s-19,30-19,56v14h-29v52h27v176h61V2355h47l71,174c-6,13-16,20-27,20-8,0-21-4-30-9l-21,45c16,10,39,15,62,15,41,0,60-35,67-52l94-244h-61l-54,155-60-155h-89Zm-168,0h58v228h-58Zm-141,163V2355h-28v-53h28v-60h59v60h59v53h-59v103c0,19,12,23,26,23,12,0,23-4,33-9v51c-14,8-30,13-51,13C9506,2536,9479,2520,9479,2467Z" fill="#fff" fill-rule="evenodd"/>
    <path id="Path_62" data-name="Path 62" d="M9375,2692c374,0,678,303,678,677,0,375-304,678-678,678s-678-303-678-678C8697,2995,9001,2692,9375,2692Zm495,546c0,49-52,79-95,55a623.929,623.929,0,0,0-90-44c-63-25-127-42-193-53a1238.533,1238.533,0,0,0-138-17c-48-2-96-3-145,0-55,3-110,9-164,20-20,5-40,10-59,15-12,4-24,4-36,1-27-8-45-32-46-60-1-27,16-52,42-60,19-6,39-11,58-16,49-11,98-18,148-23,53-4,105-6,158-4,130,3,258,22,382,65a819.774,819.774,0,0,1,145,66c16,9,27,23,31,42C9869,3229,9869,3234,9870,3238Zm-615,152c-78,0-157,10-235,33a52.445,52.445,0,0,1-37-1,51.65,51.65,0,0,1-33-50c1-22,14-42,36-48q33-10.5,66-18c55-12,111-18,167-20,122-5,240,11,355,48a758.227,758.227,0,0,1,167,74c3,2,6,3,8,5,28,17,31,51,18,72-15,25-46,33-72,18-15-8-29-17-44-25-69-35-141-57-217-71A953.235,953.235,0,0,0,9255,3390Zm12,115c90,1,177,13,262,42,46,15,91,36,134,61,3,2,7,4,10,7a41.992,41.992,0,0,1,11,55c-11,18-33,25-53,17a67.262,67.262,0,0,1-11-7,642.505,642.505,0,0,0-232-81,781.646,781.646,0,0,0-153-9c-66,3-131,12-196,26a62.792,62.792,0,0,1-19,3,41.836,41.836,0,0,1-41-33c-3-20,7-39,25-47,4-1,8-2,13-3a1212.744,1212.744,0,0,1,160-26C9207,3508,9237,3507,9267,3505Z" fill="#fff" fill-rule="evenodd"/>
  </g>
</svg>
